<svg width="40" height="40" viewBox="0 0 40 40" fill="none" xmlns="http://www.w3.org/2000/svg">
<rect width="40" height="40" rx="8" fill="#067F38"/>
<path d="M18 31V29H13C12.45 29 11.9792 28.8042 11.5875 28.4125C11.1958 28.0208 11 27.55 11 27V13C11 12.45 11.1958 11.9792 11.5875 11.5875C11.9792 11.1958 12.45 11 13 11H18V9H20V31H18ZM13 26H18V20L13 26ZM22 29V20L27 26V13H22V11H27C27.55 11 28.0208 11.1958 28.4125 11.5875C28.8042 11.9792 29 12.45 29 13V27C29 27.55 28.8042 28.0208 28.4125 28.4125C28.0208 28.8042 27.55 29 27 29H22Z" fill="white"/>
</svg>
