<svg width="24" height="24" viewBox="0 0 24 24" fill="none" xmlns="http://www.w3.org/2000/svg">
<path d="M4.4 21C4.08333 20.9333 3.7875 20.7625 3.5125 20.4875C3.2375 20.2125 3.06667 19.9167 3 19.6L19.6 3C19.95 3.08333 20.25 3.25417 20.5 3.5125C20.75 3.77083 20.925 4.06667 21.025 4.4L4.4 21ZM3 14.7V11.9L11.9 3H14.7L3 14.7ZM3 7V5C3 4.45 3.19583 3.97917 3.5875 3.5875C3.97917 3.19583 4.45 3 5 3H7L3 7ZM17 21L21 17V19C21 19.55 20.8042 20.0208 20.4125 20.4125C20.0208 20.8042 19.55 21 19 21H17ZM9.3 21L21 9.3V12.1L12.1 21H9.3Z" fill="white"/>
</svg>
