<svg width="51" height="46" viewBox="0 0 51 46" fill="none" xmlns="http://www.w3.org/2000/svg">
<g clip-path="url(#clip0_2143_6966)">
<path d="M41.7273 41.4001H4.63636V9.2001H30.1364V4.6001H4.63636C3.36136 4.6001 2.27182 5.0601 1.36773 5.9571C0.463636 6.8541 0 7.9351 0 9.2001V41.4001C0 42.6651 0.463636 43.7461 1.36773 44.6431C2.27182 45.5401 3.36136 46.0001 4.63636 46.0001H41.7273C43.0023 46.0001 44.0918 45.5401 44.9959 44.6431C45.9 43.7461 46.3636 42.6651 46.3636 41.4001V20.7001H41.7273V41.4001Z" fill="black"/>
<path d="M41.7262 13.8V9.2H37.0898V4.6H41.7262V0H46.3626V4.6H50.9989V9.2H46.3626V13.8H41.7262Z" fill="black"/>
<path d="M28.4895 23L34.4473 30.935L38.9677 36.892H7L15.5077 25.691L20.9786 32.913L21.2105 32.591L25.8005 26.519L26.2409 25.967L28.4895 23Z" fill="#067F38"/>
</g>
<defs>
<clipPath id="clip0_2143_6966">
<rect width="51" height="46" fill="white"/>
</clipPath>
</defs>
</svg>
