<svg width="70" height="66" viewBox="0 0 70 66" fill="none" xmlns="http://www.w3.org/2000/svg">
<path d="M24.3729 65.8842L18.4242 55.8586L7.12937 53.3842L8.23196 41.7561L0.578125 32.9997L8.23196 24.2434L7.12937 12.6152L18.4242 10.1409L24.3729 0.115234L35.001 4.62807L45.6292 0.115234L51.5779 10.1409L62.8727 12.6152L61.7701 24.2434L69.424 32.9997L61.7701 41.7561L62.8727 53.3842L51.5779 55.8586L45.6292 65.8842L35.001 61.3714L24.3729 65.8842V65.8842ZM31.501 43.6791L49.1805 25.9997L45.6677 22.3844L31.501 36.5511L24.3344 29.487L20.8216 32.9997L31.501 43.6792V43.6791Z" fill="#6EB329"/>
</svg>
