<svg width="21" height="20" viewBox="0 0 21 20" fill="none" xmlns="http://www.w3.org/2000/svg">
<path fill-rule="evenodd" clip-rule="evenodd" d="M13.5883 9.41071C13.7445 9.56698 13.8323 9.77891 13.8323 9.99988C13.8323 10.2208 13.7445 10.4328 13.5883 10.589L8.87415 15.3032C8.79727 15.3828 8.70532 15.4463 8.60365 15.49C8.50198 15.5336 8.39263 15.5566 8.28198 15.5576C8.17133 15.5585 8.0616 15.5375 7.95919 15.4956C7.85677 15.4537 7.76373 15.3918 7.68548 15.3135C7.60724 15.2353 7.54536 15.1423 7.50346 15.0398C7.46156 14.9374 7.44048 14.8277 7.44144 14.717C7.4424 14.6064 7.46539 14.497 7.50906 14.3954C7.55274 14.2937 7.61622 14.2017 7.69581 14.1249L11.8208 9.99988L7.69581 5.87488C7.54401 5.71771 7.46002 5.50721 7.46192 5.28871C7.46382 5.07021 7.55146 4.8612 7.70596 4.70669C7.86047 4.55219 8.06948 4.46455 8.28798 4.46265C8.50648 4.46075 8.71698 4.54474 8.87415 4.69654L13.5883 9.41071Z" fill="#067F38"/>
</svg>
